<svg id="Réteg_1" data-name="Réteg 1" xmlns="http://www.w3.org/2000/svg" viewBox="0 0 2195.49 1414.45"><path d="M1135.8,446.8h223.3V675.07H1472c52.15,0,105.78-9.29,155.15-26,24.27-8.23,51.49-19.68,75.43-34.08-31.52-41.15-47.62-93.11-52.34-144.34-6.45-69.67,7.61-160.36,54.76-214.89l23.48-27.15,28,22.49c70.42,56.58,129.65,135.64,140.09,225.77,84.79-25,184.35-19.05,259.09,24.09l30.66,17.69-16.13,31.51C2107,673.5,1974.79,711.72,1845.59,705c-193.33,481.53-614.24,709.5-1124.58,709.5-263.67,0-505.57-98.56-643.32-332.49l-2.26-3.81-20.07-40.84c-46.56-103-62-215.77-51.54-328.48L7,675.07h191V446.8H421.22V223.5H867.83V.2h268V446.8" fill="#364548" fill-rule="evenodd"/><path d="M1859.26,531.25c15-116.37-72.11-207.76-126.11-251.16-62.24,72-71.91,260.53,25.73,339.92-54.49,48.4-169.31,92.27-286.88,92.27H40.9C29.47,835,51,948,100.23,1044.75l16.28,29.78a551.72,551.72,0,0,0,33.74,50.63q88.25,5.67,162.71,4h0c97.53-2.15,177.11-13.67,237.42-34.57a17.2,17.2,0,0,1,11.26,32.48c-8,2.79-16.38,5.39-25,7.86h0c-47.49,13.57-98.41,22.69-164.12,26.74,3.91.07-4.06.59-4.08.59-2.24.14-5.05.46-7.29.58-25.86,1.46-53.77,1.76-82.31,1.76-31.21,0-61.94-.59-96.31-2.34l-.88.58c119.24,134,305.69,214.41,539.4,214.41,494.61,0,914.14-219.26,1099.92-711.5,131.8,13.53,258.47-20.09,316.08-132.57-91.77-53-209.8-36.07-277.76-1.91" fill="#22a0c8" fill-rule="evenodd"/><path d="M1859.26,531.25c15-116.37-72.11-207.76-126.11-251.16-62.24,72-71.91,260.53,25.73,339.92-54.49,48.4-169.31,92.27-286.88,92.27H125.65c-5.84,187.94,63.9,330.61,187.3,416.86h0c97.53-2.15,177.11-13.67,237.42-34.57a17.2,17.2,0,0,1,11.26,32.48c-8,2.79-16.38,5.39-25,7.86h0c-47.49,13.57-102.79,23.86-168.49,27.91,0,0-1.59-1.51-1.61-1.51,168.33,86.35,412.4,86,692.23-21.46,313.77-120.54,605.75-350.19,809.48-612.86-3.07,1.39-6.06,2.8-9,4.26" fill="#37b1d9" fill-rule="evenodd"/><path d="M43.59,861.39c8.88,65.74,28.12,127.29,56.64,183.36l16.28,29.78a550.36,550.36,0,0,0,33.74,50.63q88.26,5.67,162.73,4c97.53-2.15,177.11-13.67,237.42-34.57a17.2,17.2,0,0,1,11.26,32.48c-8,2.79-16.38,5.39-25,7.86h0c-47.49,13.57-102.5,23.27-168.2,27.34-2.26.13-6.19.16-8.47.29-25.84,1.44-53.46,2.33-82,2.33-31.2,0-63.11-.59-97.46-2.34,119.24,134,306.84,214.7,540.55,214.7,423.44,0,791.83-160.73,1005.65-515.84H43.59" fill="#1b81a5" fill-rule="evenodd"/><path d="M138.53,861.39c25.31,115.43,86.14,206,174.45,267.75,97.53-2.15,177.11-13.67,237.42-34.57a17.2,17.2,0,0,1,11.26,32.48c-8,2.79-16.38,5.39-25,7.86h0c-47.49,13.57-103.66,23.27-169.37,27.34,168.32,86.32,411.69,85.08,691.5-22.4,169.28-65,332.2-161.85,478.36-278.46H138.53" fill="#1d91b4" fill-rule="evenodd"/><path d="M235.14,484H428.67V677.55H235.14Zm16.12,16.14h15.28V661.43H251.26Zm28.71,0h15.89V661.43H280V500.15Zm29.32,0h15.89V661.43H309.29Zm29.34,0H354.5V661.43H338.63Zm29.32,0h15.88V661.43H368V500.15Zm29.32,0h15.28V661.43H397.27Zm61.17-239.44H652V454.24H458.43V260.71Zm16.13,16.14h15.27V438.12H474.57Zm28.71,0h15.88V438.12H503.29V276.85Zm29.32,0h15.88V438.12H532.6Zm29.33,0H577.8V438.12H561.93Zm29.32,0h15.89V438.12H591.25Zm29.32,0h15.29V438.12H620.57Z" fill="#23a3c2" fill-rule="evenodd"/><path d="M458.44,484H652V677.55H458.43V484Zm16.13,16.14h15.27V661.43H474.57Zm28.71,0h15.88V661.43H503.29V500.15Zm29.32,0h15.88V661.43H532.6Zm29.33,0H577.8V661.43H561.93Zm29.32,0h15.89V661.43H591.25Zm29.32,0h15.29V661.43H620.57Z" fill="#34bbde" fill-rule="evenodd"/><path d="M681.75,484H875.29V677.55H681.75Zm16.12,16.14h15.27V661.43H697.87Zm28.71,0h15.88V661.43H726.58Zm29.33,0h15.88V661.43H755.91Zm29.33,0h15.88V661.43H785.24Zm29.31,0h15.9V661.43h-15.9Zm29.33,0h15.27V661.43H843.88Z" fill="#23a3c2" fill-rule="evenodd"/><path d="M681.75,260.71H875.29V454.24H681.75Zm16.12,16.14h15.27V438.12H697.87Zm28.71,0h15.88V438.12H726.58Zm29.33,0h15.88V438.12H755.91Zm29.33,0h15.88V438.12H785.24Zm29.31,0h15.9V438.12h-15.9Zm29.33,0h15.27V438.12H843.88ZM905.05,484h193.54V677.55H905.05Zm16.13,16.14h15.27V661.43H921.18Zm28.71,0h15.88V661.43H949.89Zm29.32,0h15.88V661.43H979.21Zm29.33,0h15.89V661.43h-15.89Zm29.32,0h15.89V661.43h-15.89Zm29.33,0h15.27V661.43h-15.27Z" fill="#34bbde" fill-rule="evenodd"/><path d="M905.05,260.71h193.54V454.24H905.05Zm16.13,16.14h15.27V438.12H921.18Zm28.71,0h15.88V438.12H949.89Zm29.32,0h15.88V438.12H979.21Zm29.33,0h15.89V438.12h-15.89Zm29.32,0h15.89V438.12h-15.89Zm29.33,0h15.27V438.12h-15.27Z" fill="#23a3c2" fill-rule="evenodd"/><path d="M905.05,37.4h193.54V231H905.05Zm16.13,16.13h15.27V214.81H921.18V53.52Zm28.71,0h15.88V214.81H949.89V53.52Zm29.32,0h15.88V214.81H979.21V53.52Zm29.33,0h15.89V214.81h-15.89V53.52Zm29.32,0h15.89V214.81h-15.89V53.52Zm29.33,0h15.27V214.81h-15.27V53.52Z" fill="#34bbde" fill-rule="evenodd"/><path d="M1128.35,484h193.54V677.55H1128.35Zm16.12,16.14h15.28V661.43h-15.28V500.15Zm28.71,0h15.88V661.43h-15.87V500.15Zm29.33,0h15.89V661.43h-15.89Zm29.32,0h15.89V661.43h-15.89Zm29.33,0H1277V661.43h-15.88Zm29.32,0h15.27V661.43h-15.27Z" fill="#23a3c2" fill-rule="evenodd"/><path d="M639.87,991.33a53.4,53.4,0,1,1,1.41,106.79h-1.43a53.4,53.4,0,0,1,0-106.79" fill="#d3ecec" fill-rule="evenodd"/><path d="M639.87,1006.47a38,38,0,0,1,13.83,2.59,15.6,15.6,0,1,0,21.49,21,38.21,38.21,0,1,1-35.32-23.58" fill="#364548" fill-rule="evenodd"/><path d="M781.79,1376.07c-132.23-62.74-204.8-148-245.18-241.15-49.12,14-108.15,23-176.75,26.83q-38.76,2.16-81.55,2.19-49.34,0-103.93-2.9C295.64,1282.23,444.81,1375.53,721,1377.23q30.59,0,60.77-1.16" fill="#bdd9d7" fill-rule="evenodd"/><path d="M585.72,1220.84c-18.29-24.83-36-56-49.08-85.94-49.12,14-108.17,23-176.78,26.86,47.12,25.57,114.52,49.28,225.87,59.08" fill="#d3ecec" fill-rule="evenodd"/></svg>