<svg  xmlns="http://www.w3.org/2000/svg"  width="30" height="30" viewBox="0 0 1081 1160" fill="none"><path d="M556.729 518.582C517.675 518.582 486.014 486.92 486.014 447.866V70.7156C486.014 31.6617 517.675 0 556.729 0C595.783 0 627.445 31.6617 627.445 70.7156V447.866C627.445 486.92 595.783 518.582 556.729 518.582Z" fill="#45526C"></path><path fill-rule="evenodd" clip-rule="evenodd" d="M340.892 182.313C341.742 170.636 329.483 162.53 319.071 167.885L8.52716 327.587C-1.67033 332.832 -2.45121 347.114 7.11376 353.439L86.8413 406.157C52.0879 477.062 33.4329 555.701 33.4329 636.441C33.4329 924.989 268.181 1159.74 556.729 1159.74C845.277 1159.74 1080.02 924.989 1080.02 636.441C1080.02 486.934 1015.85 344.239 903.957 244.931C874.742 219.011 830.049 221.67 804.125 250.885C778.206 280.1 780.869 324.793 810.079 350.717C891.751 423.2 938.593 527.341 938.593 636.441C938.593 847.004 767.292 1018.31 556.729 1018.31C346.166 1018.31 174.864 847.004 174.864 636.441C174.864 583.781 185.743 532.342 206.168 485.06L292.305 542.017C301.87 548.342 314.706 542.031 315.538 530.594L340.892 182.313Z" fill="#45526C"></path></svg>