<svg id="e8SxFL5MEoG1" xmlns="http://www.w3.org/2000/svg" xmlns:xlink="http://www.w3.org/1999/xlink" viewBox="0 0 32 32" shape-rendering="geometricPrecision" text-rendering="geometricPrecision"><style><![CDATA[#e8SxFL5MEoG5_to {animation: e8SxFL5MEoG5_to__to 1500ms linear 1 normal forwards}@keyframes e8SxFL5MEoG5_to__to { 0% {transform: translate(28.154524px,37.510995px);animation-timing-function: cubic-bezier(0.42,0,1,1)} 100% {transform: translate(28.154524px,36.332204px)}} #e8SxFL5MEoG8_to {animation: e8SxFL5MEoG8_to__to 1500ms linear 1 normal forwards}@keyframes e8SxFL5MEoG8_to__to { 0% {transform: translate(28.154524px,36.008984px);animation-timing-function: cubic-bezier(0.42,0,0.58,1)} 100% {transform: translate(28.154524px,30.115029px)}} #e8SxFL5MEoG11_to {animation: e8SxFL5MEoG11_to__to 1500ms linear 1 normal forwards}@keyframes e8SxFL5MEoG11_to__to { 0% {transform: translate(28.154524px,33.097529px);animation-timing-function: cubic-bezier(0.42,0,0.16,0.99)} 100% {transform: translate(28.154524px,23.667201px)}}]]></style><defs><path id="e8SxFL5MEoG2" d="M45.536,38.764c-2.013,1.05-12.44,5.337-14.66,6.494s-3.453,1.146-5.207.308-12.85-5.32-14.85-6.276c-1-.478-1.524-.88-1.524-1.26v-3.813c0,0,14.447-3.145,16.78-3.982s3.14-.867,5.126-.14s13.853,2.868,15.814,3.587v3.76c0,.377-.452.8-1.477,1.324Z"/><path id="e8SxFL5MEoG3" d="M45.536,28.733c-2.013,1.05-12.44,5.337-14.66,6.494s-3.453,1.146-5.207.308-12.85-5.32-14.85-6.276-2.04-1.613-.077-2.382l15.332-5.935c2.332-.837,3.14-.867,5.126-.14s12.35,4.853,14.312,5.57s2.037,1.31.024,2.36Z"/></defs><g transform="matrix(.848327 0 0 0.848327-7.88357-9.44969)"><g id="e8SxFL5MEoG5_to" transform="translate(28.154524,37.510995)"><g transform="translate(-28.154524,-36.332204)"><use width="37.720001" height="16.587523" xlink:href="#e8SxFL5MEoG2" fill="#a41e11"/><path d="M45.536,34.95c-2.013,1.05-12.44,5.337-14.66,6.494s-3.453,1.146-5.207.308-12.85-5.32-14.85-6.276-2.04-1.613-.077-2.382l15.332-5.936c2.332-.836,3.14-.867,5.126-.14s12.35,4.852,14.31,5.582s2.037,1.31.024,2.36Z" fill="#d82c20"/></g></g><g id="e8SxFL5MEoG8_to" transform="translate(28.154524,36.008984)"><g transform="translate(-28.154524,-30.115029)"><use width="37.720001" height="16.587523" xlink:href="#e8SxFL5MEoG2" transform="translate(0-6.218)" fill="#a41e11"/><use width="37.720806" height="15.849524" xlink:href="#e8SxFL5MEoG3" fill="#d82c20"/></g></g><g id="e8SxFL5MEoG11_to" transform="translate(28.154524,33.097529)"><g transform="translate(-28.154524,-23.667201)"><path d="M45.536,26.098c-2.013,1.05-12.44,5.337-14.66,6.495s-3.453,1.146-5.207.308-12.85-5.32-14.85-6.276c-1-.478-1.524-.88-1.524-1.26v-3.815c0,0,14.447-3.145,16.78-3.982s3.14-.867,5.126-.14s13.853,2.868,15.814,3.587v3.76c0,.377-.452.8-1.477,1.324Z" fill="#a41e11"/><use width="37.720806" height="15.849524" xlink:href="#e8SxFL5MEoG3" transform="translate(0-6.449)" fill="#d82c20"/><g><path d="M29.096,20.712l-1.182-1.965-3.774-.34l2.816-1.016-.845-1.56l2.636,1.03l2.486-.814-.672,1.612l2.534.95-3.268.34ZM22.8,24.624l8.74-1.342-2.64,3.872Z" fill="#fff"/><ellipse rx="4.672" ry="1.811" transform="translate(20.444 21.402)" fill="#fff"/></g><path d="M42.132,21.138l-5.17,2.042-.004-4.087Z" fill="#7a0c00"/><path d="M36.963,23.18l-.56.22-5.166-2.042l5.723-2.264Z" fill="#ad2115"/></g></g></g></svg>