<svg xmlns="http://www.w3.org/2000/svg" viewBox="0 0 510 476.05">
      <defs><style>.cls-1{fill:#999;}.cls-2{fill:red;}.cls-3{fill:#ffb600;}</style></defs>
      <polygon points="183.34 125.53 175.59 125.53 175.59 133.27 183.34 133.27 183.34 125.53 183.34 125.53"/>
      <polygon points="183.34 191.38 175.59 191.38 175.59 199.12 183.34 199.12 183.34 191.38 183.34 191.38"/>
      <polygon points="183.34 157.81 175.59 157.81 175.59 165.55 183.34 165.55 183.34 157.81 183.34 157.81"/>
      <polygon points="269.85 95.83 175.59 95.83 175.59 103.58 269.85 103.58 269.85 95.83 269.85 95.83"/>
      <polygon points="269.85 125.53 187.22 125.53 187.22 133.27 269.85 133.27 269.85 125.53 269.85 125.53"/>
      <polygon points="269.85 157.81 187.22 157.81 187.22 165.55 269.85 165.55 269.85 157.81 269.85 157.81"/>
      <polygon points="269.85 191.38 187.22 191.38 187.22 199.12 269.85 199.12 269.85 191.38 269.85 191.38"/>
      <path d="M277.3,87.37a6.46,6.46,0,0,1,6.46,6.45v133a6.47,6.47,0,0,1-6.46,6.46H168.85a6.47,6.47,0,0,1-6.46-6.46v-133a6.46,6.46,0,0,1,6.46-6.45H277.3m0-5.17H168.85a11.62,11.62,0,0,0-11.62,11.62v133a11.62,11.62,0,0,0,11.62,11.62H277.3a11.62,11.62,0,0,0,11.62-11.62v-133A11.62,11.62,0,0,0,277.3,82.2Z" transform="translate(-1 -14.78)"/>
      <polygon points="183.34 306.29 175.59 306.29 175.59 314.03 183.34 314.03 183.34 306.29 183.34 306.29"/>
      <polygon points="183.34 338.56 175.59 338.56 175.59 346.31 183.34 346.31 183.34 338.56 183.34 338.56"/>
      <polygon points="183.34 372.13 175.59 372.13 175.59 379.88 183.34 379.88 183.34 372.13 183.34 372.13"/>
      <polygon points="269.85 276.59 175.59 276.59 175.59 284.34 269.85 284.34 269.85 276.59 269.85 276.59"/>
      <polygon points="269.85 306.35 187.22 306.35 187.22 313.97 269.85 313.97 269.85 306.35 269.85 306.35"/>
      <polygon points="269.85 372.19 187.22 372.19 187.22 379.82 269.85 379.82 269.85 372.19 269.85 372.19"/>
      <polygon points="269.85 338.62 187.22 338.62 187.22 346.25 269.85 346.25 269.85 338.62 269.85 338.62"/>
      <path d="M277.3,268.13a6.46,6.46,0,0,1,6.46,6.45v133A6.47,6.47,0,0,1,277.3,414H168.85a6.47,6.47,0,0,1-6.46-6.46v-133a6.46,6.46,0,0,1,6.46-6.45H277.3m0-5.17H168.85a11.62,11.62,0,0,0-11.62,11.62v133a11.62,11.62,0,0,0,11.62,11.62H277.3a11.62,11.62,0,0,0,11.62-11.62v-133A11.62,11.62,0,0,0,277.3,263Z" transform="translate(-1 -14.78)"/>
      <polygon points="344.73 146.19 306 146.19 306 152.64 344.73 152.64 344.73 323.07 306 323.07 306 329.53 344.73 329.53 351.19 329.53 351.19 323.07 351.19 152.64 351.19 146.19 344.73 146.19"/>
      <path d="M63.64,410.44q1.56-1.11,3.18-2.1c-.08-28.28-.33-80.75-1.21-107.12h0c0-17.31,0-40.59-36.46-48.16,36.42-7.57,36.46-30.84,36.46-48.15h0c1-29,1.18-89.63,1.23-114.85-.64-.41-1.29-.81-1.91-1.26C51.18,79,43.12,63.41,40.66,45.13c-4.38,7.18-7.15,16.07-7.38,27.08C32.1,128.82,29.84,194,29.46,204.91c-.91,24.51-15.91,29.18-23.76,29.94-1.48.08-3,.11-4.7.05v36.33c1.67-.06,3.22,0,4.7,0,7.85.76,22.85,5.43,23.76,29.94.38,10.88,2.64,76.09,3.82,132.69a54.49,54.49,0,0,0,5.66,24C40.74,438,48.94,421,63.64,410.44Z" transform="translate(-1 -14.78)"/>
      <path d="M64.93,88.8c.62.45,1.27.85,1.91,1.26,0-7.09,0-11.39,0-11.39s-5.17-37.44,49.06-32.28v-31s-55-3.48-75.25,29.73C43.12,63.41,51.18,79,64.93,88.8Z" transform="translate(-1 -14.78)"/>
      <path d="M115.91,490.72v-31c-54.23,5.16-49.06-32.28-49.06-32.28s0-7.53,0-19.12q-1.62,1-3.18,2.1C48.94,421,40.74,438,38.94,457.94,57.61,494.42,115.91,490.72,115.91,490.72Z" transform="translate(-1 -14.78)"/>
      <path d="M506.3,234.33c-7.85-.77-22.85-5.43-23.76-29.94-.38-10.88-2.64-76.09-3.82-132.7a55.7,55.7,0,0,0-4.42-21.37c-2.72,17.51-10.7,32.4-24,41.93a56,56,0,0,1-5.12,3.2c.07,27.79.31,82,1.21,108.94h0c0,17.31,0,40.58,36.46,48.15-36.42,7.57-36.46,30.85-36.46,48.16h0c-.9,27.05-1.15,81.56-1.21,109.25a55.05,55.05,0,0,1,6.41,3.93c12.55,9,20.36,22.75,23.5,39a56.8,56.8,0,0,0,3.63-19.48c1.18-56.6,3.44-121.81,3.82-132.69.91-24.51,15.91-29.18,23.76-29.94,1.48-.08,3-.11,4.7-.05V234.38C509.33,234.44,507.78,234.41,506.3,234.33Z" transform="translate(-1 -14.78)"/>
      <path d="M474.3,50.32C457.17,11,396.09,14.88,396.09,14.88v31c54.23-5.16,49.06,32.28,49.06,32.28s0,6.75,0,17.3a56,56,0,0,0,5.12-3.2C463.6,82.72,471.58,67.83,474.3,50.32Z" transform="translate(-1 -14.78)"/>
      <path d="M451.59,413.88a55.05,55.05,0,0,0-6.41-3.93c0,10.37,0,17,0,17s5.17,37.44-49.06,32.28v31s63,4,79-37.33C472,436.63,464.14,422.87,451.59,413.88Z" transform="translate(-1 -14.78)"/>
  </svg>