<?xml version="1.0" encoding="utf-8"?><svg xmlns="http://www.w3.org/2000/svg" xmlns:xlink="http://www.w3.org/1999/xlink" width="1536" height="754" preserveAspectRatio="xMidYMid" viewBox="0 0 1536 754" style="z-index:1;margin-right:-2px;display:block;background-repeat-y:initial;background-repeat-x:initial;animation-play-state:paused" ><g transform="translate(768,377) scale(1,-1) translate(-768,-377)" style="transform:matrix(1, 0, 0, -1, 0, 754);animation-play-state:paused" ><linearGradient id="lg-0.20947293537342038" x1="0" x2="1" y1="0" y2="0" style="animation-play-state:paused" ><stop stop-color="#2ecb2d" offset="0" style="animation-play-state:paused" ></stop>

  
<stop stop-color="#00ffff" offset="1" style="animation-play-state:paused" ></stop></linearGradient>
<path d="M 0 0 L 0 634.471 Q 153.6 544.027 307.2 524.818 T 614.4 326.471 T 921.6 80.4791 T 1228.8 -61.0587 T 1536 -330.955 L 1536 0 Z" fill="url(#lg-0.20947293537342038)" opacity="0.4" style="opacity:0.4;animation-play-state:paused" ></path>
<path d="M 0 0 L 0 721.749 Q 153.6 523.189 307.2 505.448 T 614.4 368.463 T 921.6 133.731 T 1228.8 -39.933 T 1536 -185.304 L 1536 0 Z" fill="url(#lg-0.20947293537342038)" opacity="0.4" style="opacity:0.4;animation-play-state:paused" ></path>
<path d="M 0 0 L 0 663.993 Q 153.6 493.799 307.2 460.302 T 614.4 352.423 T 921.6 152.364 T 1228.8 18.5481 T 1536 -140.191 L 1536 0 Z" fill="url(#lg-0.20947293537342038)" opacity="0.4" style="opacity:0.4;animation-play-state:paused" ></path>
<path d="M 0 0 L 0 638.713 Q 153.6 477.29 307.2 440.725 T 614.4 321.619 T 921.6 142.298 T 1228.8 -54.554 T 1536 -302.62 L 1536 0 Z" fill="url(#lg-0.20947293537342038)" opacity="0.4" style="opacity:0.4;animation-play-state:paused" ></path>
<path d="M 0 0 L 0 690.644 Q 153.6 563.444 307.2 539.877 T 614.4 359.69 T 921.6 173.645 T 1228.8 68.1513 T 1536 -163.352 L 1536 0 Z" fill="url(#lg-0.20947293537342038)" opacity="0.4" style="opacity:0.4;animation-play-state:paused" ></path></g></svg>