<svg id="Réteg_1" data-name="Réteg 1" xmlns="http://www.w3.org/2000/svg" viewBox="0 0 233 204"><g id="Réteg_1-2" data-name="Réteg 1"><g id="BIG"><path d="M223.7,38.54v64l5.19-3v-64Z" style="fill:#3a485f;fill-rule:evenodd"/><path d="M173.47,3.54l-5.2,3,55.43,32,5.19-3Z" style="fill:#fff;fill-rule:evenodd"/><path d="M168.27,6.54v64l55.43,32v-64Z" style="fill:#ced0d1;fill-rule:evenodd"/><path d="M176.93,63.54a3.85,3.85,0,0,0,1.73,3c1,.55,1.73.11,1.73-1a3.82,3.82,0,0,0-1.73-3c-.95-.55-1.73-.1-1.73,1m6.93,4a3.82,3.82,0,0,0,1.73,3c1,.55,1.73.11,1.73-1a3.82,3.82,0,0,0-1.73-3c-1-.55-1.73-.1-1.73,1m6.93,4a3.82,3.82,0,0,0,1.73,3c1,.55,1.73.11,1.73-1a3.82,3.82,0,0,0-1.73-3c-1-.55-1.73-.1-1.73,1m6.93,4a3.82,3.82,0,0,0,1.73,3c1,.55,1.73.11,1.73-1a3.85,3.85,0,0,0-1.73-3c-1-.55-1.73-.1-1.73,1m6.92,4a3.82,3.82,0,0,0,1.74,3c1,.55,1.73.11,1.73-1a3.85,3.85,0,0,0-1.73-3c-1-.55-1.74-.1-1.74,1" style="fill:#e5e6e8;fill-rule:evenodd"/><path d="M211.57,83.54a3.85,3.85,0,0,0,1.73,3c1,.55,1.74.11,1.74-1a3.83,3.83,0,0,0-1.74-3c-1-.55-1.73-.1-1.73,1m-34.64-28a3.85,3.85,0,0,0,1.73,3c1,.55,1.73.11,1.73-1a3.82,3.82,0,0,0-1.73-3c-.95-.55-1.73-.1-1.73,1" style="fill:#697587;fill-rule:evenodd"/><path d="M183.86,59.54a3.82,3.82,0,0,0,1.73,3c1,.55,1.73.11,1.73-1a3.82,3.82,0,0,0-1.73-3c-1-.55-1.73-.1-1.73,1m6.93,4a3.82,3.82,0,0,0,1.73,3c1,.55,1.73.11,1.73-1a3.82,3.82,0,0,0-1.73-3c-1-.55-1.73-.1-1.73,1m6.93,4a3.82,3.82,0,0,0,1.73,3c1,.55,1.73.11,1.73-1a3.85,3.85,0,0,0-1.73-3c-1-.55-1.73-.1-1.73,1m6.92,4a3.82,3.82,0,0,0,1.74,3c1,.55,1.73.11,1.73-1a3.85,3.85,0,0,0-1.73-3c-1-.55-1.74-.1-1.74,1m6.93,4a3.85,3.85,0,0,0,1.73,3c1,.55,1.74.11,1.74-1a3.83,3.83,0,0,0-1.74-3c-1-.55-1.73-.1-1.73,1m-34.64-28a3.85,3.85,0,0,0,1.73,3c1,.55,1.73.11,1.73-1a3.82,3.82,0,0,0-1.73-3c-.95-.55-1.73-.1-1.73,1m6.93,4a3.82,3.82,0,0,0,1.73,3c1,.55,1.73.11,1.73-1a3.82,3.82,0,0,0-1.73-3c-1-.55-1.73-.1-1.73,1m6.93,4a3.82,3.82,0,0,0,1.73,3c1,.55,1.73.11,1.73-1a3.82,3.82,0,0,0-1.73-3c-1-.55-1.73-.1-1.73,1m6.93,4a3.82,3.82,0,0,0,1.73,3c1,.55,1.73.11,1.73-1a3.85,3.85,0,0,0-1.73-3c-1-.55-1.73-.1-1.73,1m6.92,4a3.82,3.82,0,0,0,1.74,3c1,.55,1.73.11,1.73-1a3.85,3.85,0,0,0-1.73-3c-1-.55-1.74-.1-1.74,1" style="fill:#e5e6e8;fill-rule:evenodd"/><path d="M211.57,67.54a3.85,3.85,0,0,0,1.73,3c1,.55,1.74.11,1.74-1a3.83,3.83,0,0,0-1.74-3c-1-.55-1.73-.1-1.73,1" style="fill:#697587;fill-rule:evenodd"/><path d="M176.93,39.54a3.85,3.85,0,0,0,1.73,3c1,.55,1.73.11,1.73-1a3.82,3.82,0,0,0-1.73-3c-.95-.55-1.73-.1-1.73,1m6.93,4a3.82,3.82,0,0,0,1.73,3c1,.55,1.73.11,1.73-1a3.82,3.82,0,0,0-1.73-3c-1-.55-1.73-.1-1.73,1m6.93,4a3.82,3.82,0,0,0,1.73,3c1,.55,1.73.11,1.73-1a3.82,3.82,0,0,0-1.73-3c-1-.55-1.73-.1-1.73,1m6.93,4a3.82,3.82,0,0,0,1.73,3c1,.55,1.73.11,1.73-1a3.85,3.85,0,0,0-1.73-3c-1-.55-1.73-.1-1.73,1m6.92,4a3.82,3.82,0,0,0,1.74,3c1,.55,1.73.11,1.73-1a3.85,3.85,0,0,0-1.73-3c-1-.55-1.74-.1-1.74,1m6.93,4a3.85,3.85,0,0,0,1.73,3c1,.55,1.74.11,1.74-1a3.83,3.83,0,0,0-1.74-3c-1-.55-1.73-.1-1.73,1m-34.64-28a3.85,3.85,0,0,0,1.73,3c1,.55,1.73.11,1.73-1a3.82,3.82,0,0,0-1.73-3c-.95-.55-1.73-.1-1.73,1" style="fill:#e5e6e8;fill-rule:evenodd"/><path d="M183.86,35.54a3.82,3.82,0,0,0,1.73,3c1,.55,1.73.11,1.73-1a3.82,3.82,0,0,0-1.73-3c-1-.55-1.73-.1-1.73,1m6.93,4a3.82,3.82,0,0,0,1.73,3c1,.55,1.73.11,1.73-1a3.82,3.82,0,0,0-1.73-3c-1-.55-1.73-.1-1.73,1" style="fill:#697587;fill-rule:evenodd"/><path d="M197.72,43.54a3.82,3.82,0,0,0,1.73,3c1,.55,1.73.11,1.73-1a3.85,3.85,0,0,0-1.73-3c-1-.55-1.73-.1-1.73,1m6.92,4a3.82,3.82,0,0,0,1.74,3c1,.55,1.73.11,1.73-1a3.85,3.85,0,0,0-1.73-3c-1-.55-1.74-.1-1.74,1m6.93,4a3.85,3.85,0,0,0,1.73,3c1,.55,1.74.11,1.74-1a3.83,3.83,0,0,0-1.74-3c-1-.55-1.73-.1-1.73,1" style="fill:#e5e6e8;fill-rule:evenodd"/><path d="M176.93,23.54a3.85,3.85,0,0,0,1.73,3c1,.55,1.73.11,1.73-1a3.82,3.82,0,0,0-1.73-3c-.95-.55-1.73-.1-1.73,1" style="fill:#697587;fill-rule:evenodd"/><path d="M183.86,27.54a3.82,3.82,0,0,0,1.73,3c1,.55,1.73.11,1.73-1a3.82,3.82,0,0,0-1.73-3c-1-.55-1.73-.1-1.73,1m6.93,4a3.82,3.82,0,0,0,1.73,3c1,.55,1.73.11,1.73-1a3.82,3.82,0,0,0-1.73-3c-1-.55-1.73-.1-1.73,1m6.93,4a3.82,3.82,0,0,0,1.73,3c1,.55,1.73.11,1.73-1a3.85,3.85,0,0,0-1.73-3c-1-.55-1.73-.1-1.73,1m6.92,4a3.82,3.82,0,0,0,1.74,3c1,.55,1.73.11,1.73-1a3.85,3.85,0,0,0-1.73-3c-1-.55-1.74-.1-1.74,1m6.93,4a3.85,3.85,0,0,0,1.73,3c1,.55,1.74.11,1.74-1a3.83,3.83,0,0,0-1.74-3c-1-.55-1.73-.1-1.73,1" style="fill:#e5e6e8;fill-rule:evenodd"/></g><path d="M179,24c-8.46,3.18-10.59,6.55-11,9-.49,2.9,1.41,4.63,1,8-.51,4.21-4.17,7.2-7,9" style="fill:none;stroke:#697587;stroke-linecap:round;stroke-linejoin:round;stroke-width:1.5px"/><path d="M186,36c-6.4,3.2-9.5,4.32-9,6,.38,1.28,5.69,2.16,2,4l-14,7" style="fill:none;stroke:#697587;stroke-linecap:round;stroke-linejoin:round;stroke-width:1.5px"/><line x1="179" y1="82" x2="213" y2="69" style="fill:none;stroke:#697587;stroke-linecap:round;stroke-linejoin:round;stroke-width:1.5px"/><line x1="192" y1="40" x2="165" y2="53" style="fill:none;stroke:#697587;stroke-linecap:round;stroke-linejoin:round;stroke-width:1.5px"/><path d="M179,92c3.62-3.54,8.47-7.12,13-6s6.77,6.48,11,7c2.45.3,5-1,10-8" style="fill:none;stroke:#697587;stroke-linecap:round;stroke-linejoin:round;stroke-width:1.5px"/><g id="mid"><path d="M182.16,65.64v48l5.2-3v-48Z" style="fill:#3a485f;fill-rule:evenodd"/><path d="M145.79,38.64l-5.19,3,41.57,24,5.19-3Z" style="fill:#fff;fill-rule:evenodd"/><path d="M140.6,41.64v48l41.57,24v-48Z" style="fill:#ced0d1;fill-rule:evenodd"/><path d="M149.26,82.64a3.82,3.82,0,0,0,1.73,3c.95.55,1.73.1,1.73-1a3.85,3.85,0,0,0-1.73-3c-1-.55-1.73-.1-1.73,1m6.92,4a3.83,3.83,0,0,0,1.74,3c1,.55,1.73.1,1.73-1a3.85,3.85,0,0,0-1.73-3c-1-.55-1.74-.1-1.74,1m6.93,4a3.85,3.85,0,0,0,1.73,3c1,.55,1.74.1,1.74-1a3.83,3.83,0,0,0-1.74-3c-1-.55-1.73-.1-1.73,1" style="fill:#e5e6e8;fill-rule:evenodd"/><path d="M170,94.64a3.85,3.85,0,0,0,1.73,3c1,.55,1.73.1,1.73-1a3.82,3.82,0,0,0-1.73-3c-1-.55-1.73-.1-1.73,1" style="fill:#697587;fill-rule:evenodd"/><path d="M149.26,74.64a3.82,3.82,0,0,0,1.73,3c.95.55,1.73.1,1.73-1a3.85,3.85,0,0,0-1.73-3c-1-.55-1.73-.1-1.73,1m6.92,4a3.83,3.83,0,0,0,1.74,3c1,.55,1.73.1,1.73-1a3.85,3.85,0,0,0-1.73-3c-1-.55-1.74-.1-1.74,1m6.93,4a3.85,3.85,0,0,0,1.73,3c1,.55,1.74.1,1.74-1a3.83,3.83,0,0,0-1.74-3c-1-.55-1.73-.1-1.73,1m6.93,4a3.85,3.85,0,0,0,1.73,3c1,.55,1.73.1,1.73-1a3.82,3.82,0,0,0-1.73-3c-1-.55-1.73-.1-1.73,1" style="fill:#e5e6e8;fill-rule:evenodd"/><path d="M149.26,66.64a3.82,3.82,0,0,0,1.73,3c.95.55,1.73.1,1.73-1a3.85,3.85,0,0,0-1.73-3c-1-.55-1.73-.1-1.73,1" style="fill:#697587;fill-rule:evenodd"/><path d="M156.18,70.64a3.83,3.83,0,0,0,1.74,3c1,.55,1.73.1,1.73-1a3.85,3.85,0,0,0-1.73-3c-1-.55-1.74-.1-1.74,1m6.93,4a3.85,3.85,0,0,0,1.73,3c1,.55,1.74.1,1.74-1a3.83,3.83,0,0,0-1.74-3c-1-.55-1.73-.1-1.73,1m6.93,4a3.85,3.85,0,0,0,1.73,3c1,.55,1.73.1,1.73-1a3.82,3.82,0,0,0-1.73-3c-1-.55-1.73-.1-1.73,1" style="fill:#e5e6e8;fill-rule:evenodd"/><path d="M149.26,58.64a3.82,3.82,0,0,0,1.73,3c.95.55,1.73.1,1.73-1a3.85,3.85,0,0,0-1.73-3c-1-.55-1.73-.1-1.73,1" style="fill:#697587;fill-rule:evenodd"/><path d="M156.18,62.64a3.83,3.83,0,0,0,1.74,3c1,.55,1.73.1,1.73-1a3.85,3.85,0,0,0-1.73-3c-1-.55-1.74-.1-1.74,1" style="fill:#e5e6e8;fill-rule:evenodd"/><path d="M163.11,66.64a3.85,3.85,0,0,0,1.73,3c1,.55,1.74.1,1.74-1a3.83,3.83,0,0,0-1.74-3c-1-.55-1.73-.1-1.73,1" style="fill:#697587;fill-rule:evenodd"/><path d="M170,70.64a3.85,3.85,0,0,0,1.73,3c1,.55,1.73.1,1.73-1a3.82,3.82,0,0,0-1.73-3c-1-.55-1.73-.1-1.73,1" style="fill:#e5e6e8;fill-rule:evenodd"/><path d="M143.78,79.82l6.93-4" style="fill:#e5e6e8;fill-rule:evenodd"/></g><path d="M151,60c-9.69,3.48-11.86,6.69-12,9-.21,3.41,3.95,5.15,4,9,.06,4.21-4.84,7.7-9,10" style="fill:none;stroke:#697587;stroke-linecap:round;stroke-linejoin:round;stroke-width:1.5px"/><path d="M150.92,67.38c-1.27,1-2.8,2.59-2.92,4.62-.17,2.93,2.75,4.27,3,7,.17,1.81-.82,4.45-6,8" style="fill:none;stroke:#697587;stroke-linecap:round;stroke-linejoin:round;stroke-width:1.5px"/><path d="M165,68c-2,.82-4.54,1.3-6,4-3.43,6.33,2.71,13,0,19-1.14,2.54-4.07,5.46-12,7" style="fill:none;stroke:#697587;stroke-linecap:round;stroke-linejoin:round;stroke-width:1.5px"/><path d="M172,95a10.73,10.73,0,0,1-8,8c-3.41.78-5.51-3.1-10-3a11.42,11.42,0,0,0-7,3" style="fill:none;stroke:#697587;stroke-linecap:round;stroke-linejoin:round;stroke-width:1.5px"/><g id="SMALL"><path d="M23.08,193.09h128v-128h-128Z" style="fill:none"/><path d="M145.88,88.64v32l5.2-3v-32Z" style="fill:#3a485f;fill-rule:evenodd"/><path d="M118.17,72.64l27.71,16,5.2-3-27.71-16Z" style="fill:#fff;fill-rule:evenodd"/><path d="M118.17,72.64v32l27.71,16v-32Z" style="fill:#ced0d1;fill-rule:evenodd"/><path d="M126.83,97.64a3.82,3.82,0,0,0,1.73,3c1,.55,1.73.1,1.73-1a3.82,3.82,0,0,0-1.73-3c-1-.55-1.73-.11-1.73,1" style="fill:#e5e6e8;fill-rule:evenodd"/><path d="M133.76,101.64a3.82,3.82,0,0,0,1.73,3c1,.55,1.73.1,1.73-1a3.82,3.82,0,0,0-1.73-3c-1-.55-1.73-.11-1.73,1m-6.93-12a3.82,3.82,0,0,0,1.73,3c1,.55,1.73.1,1.73-1a3.82,3.82,0,0,0-1.73-3c-1-.55-1.73-.11-1.73,1" style="fill:#697587;fill-rule:evenodd"/><path d="M133.76,93.64a3.82,3.82,0,0,0,1.73,3c1,.55,1.73.1,1.73-1a3.82,3.82,0,0,0-1.73-3c-1-.55-1.73-.11-1.73,1" style="fill:#e5e6e8;fill-rule:evenodd"/><path d="M135.49,102.64l-3.93,2.27a27.7,27.7,0,0,0-4.28,2.42c-3.11,2.25-2.68,3.67-.28,6.67h0a2.93,2.93,0,0,1,0,4.13,3.06,3.06,0,0,1-.53.42c-2,1.25-4.69,2.47-5.91,3.13-.38.2-.77.4-1.16.58M83.8,105.64,114,89m14.56,1.64-3.93,2.27C122.78,94,97.86,110.07,96,109" style="fill:none;stroke:#697587;stroke-linecap:round;stroke-linejoin:round;stroke-width:1.5px"/></g></g><g id="Réteg_1_másolat" data-name="Réteg 1 másolat"><path d="M-3.29,207.41h128v-128h-128Z" style="fill:none"/><path d="M119.51,103v32l5.2-3V100Z" style="fill:#3a485f;fill-rule:evenodd"/><path d="M91.8,87l27.71,16,5.2-3L97,84Z" style="fill:#fff;fill-rule:evenodd"/><path d="M91.8,87v32l27.71,16V103Z" style="fill:#ced0d1;fill-rule:evenodd"/><path d="M100.46,112a3.85,3.85,0,0,0,1.73,3c1,.56,1.74.11,1.74-1a3.86,3.86,0,0,0-1.74-3c-1-.55-1.73-.1-1.73,1" style="fill:#e5e6e8;fill-rule:evenodd"/><path d="M107.39,116a3.85,3.85,0,0,0,1.73,3c1,.56,1.73.11,1.73-1a3.85,3.85,0,0,0-1.73-3c-1-.55-1.73-.1-1.73,1m-6.93-12a3.85,3.85,0,0,0,1.73,3c1,.56,1.74.11,1.74-1a3.86,3.86,0,0,0-1.74-3c-1-.55-1.73-.1-1.73,1" style="fill:#697587;fill-rule:evenodd"/><path d="M107.39,108a3.85,3.85,0,0,0,1.73,3c1,.56,1.73.11,1.73-1a3.85,3.85,0,0,0-1.73-3c-1-.55-1.73-.1-1.73,1" style="fill:#e5e6e8;fill-rule:evenodd"/><path d="M109.12,117l-3.93,2.27a6,6,0,0,0-3,5.2v9.11a6,6,0,0,1-3,5.2L76.21,152m26-47-3.92,2.27a6,6,0,0,1-6,0l-7.86-4.53a6,6,0,0,0-6,0L55.43,116" style="fill:none;stroke:#697587;stroke-linecap:round;stroke-linejoin:round;stroke-width:1.5px"/><path d="M91.8,119v48l5.2-3V116Z" style="fill:#3a485f;fill-rule:evenodd"/><path d="M55.42,92l-5.19,3L91.8,119l5.2-3Z" style="fill:#fff;fill-rule:evenodd"/><path d="M50.23,95v48L91.8,167V119Z" style="fill:#ced0d1;fill-rule:evenodd"/><path d="M58.89,136a3.85,3.85,0,0,0,1.73,3c1,.55,1.73.1,1.73-1a3.82,3.82,0,0,0-1.73-3c-1-.56-1.73-.11-1.73,1m6.93,4a3.85,3.85,0,0,0,1.73,3c1,.55,1.73.1,1.73-1a3.85,3.85,0,0,0-1.73-3c-1-.56-1.73-.11-1.73,1m6.92,4a3.86,3.86,0,0,0,1.74,3c1,.55,1.73.1,1.73-1a3.85,3.85,0,0,0-1.73-3c-1-.56-1.74-.11-1.74,1" style="fill:#e5e6e8;fill-rule:evenodd"/><path d="M79.67,148a3.85,3.85,0,0,0,1.73,3c1,.55,1.74.1,1.74-1a3.82,3.82,0,0,0-1.74-3c-1-.56-1.73-.11-1.73,1" style="fill:#697587;fill-rule:evenodd"/><path d="M58.89,128a3.85,3.85,0,0,0,1.73,3c1,.55,1.73.1,1.73-1a3.82,3.82,0,0,0-1.73-3c-1-.56-1.73-.11-1.73,1m6.93,4a3.85,3.85,0,0,0,1.73,3c1,.55,1.73.1,1.73-1a3.85,3.85,0,0,0-1.73-3c-1-.56-1.73-.11-1.73,1m6.92,4a3.86,3.86,0,0,0,1.74,3c1,.55,1.73.1,1.73-1a3.85,3.85,0,0,0-1.73-3c-1-.56-1.74-.11-1.74,1m6.93,4a3.85,3.85,0,0,0,1.73,3c1,.55,1.74.1,1.74-1a3.82,3.82,0,0,0-1.74-3c-1-.56-1.73-.11-1.73,1" style="fill:#e5e6e8;fill-rule:evenodd"/><path d="M58.89,120a3.85,3.85,0,0,0,1.73,3c1,.55,1.73.1,1.73-1a3.82,3.82,0,0,0-1.73-3c-1-.56-1.73-.11-1.73,1" style="fill:#697587;fill-rule:evenodd"/><path d="M65.82,124a3.85,3.85,0,0,0,1.73,3c1,.55,1.73.1,1.73-1a3.85,3.85,0,0,0-1.73-3c-1-.56-1.73-.11-1.73,1m6.92,4a3.86,3.86,0,0,0,1.74,3c1,.55,1.73.1,1.73-1a3.85,3.85,0,0,0-1.73-3c-1-.56-1.74-.11-1.74,1m6.93,4a3.85,3.85,0,0,0,1.73,3c1,.55,1.74.1,1.74-1a3.82,3.82,0,0,0-1.74-3c-1-.56-1.73-.11-1.73,1" style="fill:#e5e6e8;fill-rule:evenodd"/><path d="M58.89,112a3.85,3.85,0,0,0,1.73,3c1,.55,1.73.1,1.73-1a3.82,3.82,0,0,0-1.73-3c-1-.56-1.73-.11-1.73,1" style="fill:#697587;fill-rule:evenodd"/><path d="M65.82,116a3.85,3.85,0,0,0,1.73,3c1,.55,1.73.1,1.73-1a3.85,3.85,0,0,0-1.73-3c-1-.56-1.73-.11-1.73,1" style="fill:#e5e6e8;fill-rule:evenodd"/><path d="M72.74,120a3.86,3.86,0,0,0,1.74,3c1,.55,1.73.1,1.73-1a3.85,3.85,0,0,0-1.73-3c-1-.56-1.74-.11-1.74,1" style="fill:#697587;fill-rule:evenodd"/><path d="M79.67,124a3.85,3.85,0,0,0,1.73,3c1,.55,1.74.1,1.74-1a3.82,3.82,0,0,0-1.74-3c-1-.56-1.73-.11-1.73,1" style="fill:#e5e6e8;fill-rule:evenodd"/><path d="M60.62,113l-3.93,2.27a6,6,0,0,1-6,0l-7.86-4.54a6,6,0,0,0-6,0L13.85,124m19.23,12.9L60.62,121l-3.93,2.27a6,6,0,0,1-6,0l-.93-.54a6,6,0,0,0-6,0L19.22,136.86m62.36,12-3.93,2.27a6,6,0,0,0-3,5.19v9.11a6,6,0,0,1-3,5.2l-23,13.23" style="fill:none;stroke:#697587;stroke-linecap:round;stroke-linejoin:round;stroke-width:1.5px"/><path d="M53.41,133.14l6.93-4" style="fill:#e5e6e8;fill-rule:evenodd"/><path d="M54.48,164.63l27.1-15.77M48,152.23l16.54-9.54a6,6,0,0,0,3-5.2v-9.08a6,6,0,0,1,3-5.19l3.94-2.28" style="fill:none;stroke:#697587;stroke-linecap:round;stroke-linejoin:round;stroke-width:1.5px"/><path d="M57.33,138.86v64l5.19-3v-64Z" style="fill:#3a485f;fill-rule:evenodd"/><path d="M7.1,103.86l-5.2,3,55.43,32,5.19-3Z" style="fill:#fff;fill-rule:evenodd"/><path d="M1.9,106.86v64l55.43,32v-64Z" style="fill:#ced0d1;fill-rule:evenodd"/><path d="M10.56,163.86a3.85,3.85,0,0,0,1.73,3c1,.55,1.74.1,1.74-1a3.82,3.82,0,0,0-1.74-3c-.95-.55-1.73-.11-1.73,1m6.93,4a3.85,3.85,0,0,0,1.73,3c1,.55,1.73.1,1.73-1a3.82,3.82,0,0,0-1.73-3c-.95-.55-1.73-.11-1.73,1m6.93,4a3.82,3.82,0,0,0,1.73,3c1,.55,1.73.1,1.73-1a3.82,3.82,0,0,0-1.73-3c-1-.55-1.73-.11-1.73,1m6.93,4a3.82,3.82,0,0,0,1.73,3c1,.55,1.73.1,1.73-1a3.82,3.82,0,0,0-1.73-3c-1-.55-1.73-.11-1.73,1m6.93,4a3.82,3.82,0,0,0,1.73,3c1,.55,1.73.1,1.73-1a3.85,3.85,0,0,0-1.73-3c-1-.55-1.73-.11-1.73,1" style="fill:#e5e6e8;fill-rule:evenodd"/><path d="M45.2,183.86a3.83,3.83,0,0,0,1.74,3c1,.55,1.73.1,1.73-1a3.85,3.85,0,0,0-1.73-3c-1-.55-1.74-.11-1.74,1m-34.64-28a3.85,3.85,0,0,0,1.73,3c1,.55,1.74.1,1.74-1a3.82,3.82,0,0,0-1.74-3c-.95-.55-1.73-.11-1.73,1" style="fill:#697587;fill-rule:evenodd"/><path d="M17.49,159.86a3.85,3.85,0,0,0,1.73,3c1,.55,1.73.1,1.73-1a3.82,3.82,0,0,0-1.73-3c-.95-.55-1.73-.11-1.73,1m6.93,4a3.82,3.82,0,0,0,1.73,3c1,.55,1.73.1,1.73-1a3.82,3.82,0,0,0-1.73-3c-1-.55-1.73-.11-1.73,1m6.93,4a3.82,3.82,0,0,0,1.73,3c1,.55,1.73.1,1.73-1a3.82,3.82,0,0,0-1.73-3c-1-.55-1.73-.11-1.73,1m6.93,4a3.82,3.82,0,0,0,1.73,3c1,.55,1.73.1,1.73-1a3.85,3.85,0,0,0-1.73-3c-1-.55-1.73-.11-1.73,1m6.92,4a3.83,3.83,0,0,0,1.74,3c1,.55,1.73.1,1.73-1a3.85,3.85,0,0,0-1.73-3c-1-.55-1.74-.11-1.74,1m-34.64-28a3.85,3.85,0,0,0,1.73,3c1,.55,1.74.1,1.74-1a3.82,3.82,0,0,0-1.74-3c-.95-.55-1.73-.11-1.73,1m6.93,4a3.85,3.85,0,0,0,1.73,3c1,.55,1.73.1,1.73-1a3.82,3.82,0,0,0-1.73-3c-.95-.55-1.73-.11-1.73,1m6.93,4a3.82,3.82,0,0,0,1.73,3c1,.55,1.73.1,1.73-1a3.82,3.82,0,0,0-1.73-3c-1-.55-1.73-.11-1.73,1m6.93,4a3.82,3.82,0,0,0,1.73,3c1,.55,1.73.1,1.73-1a3.82,3.82,0,0,0-1.73-3c-1-.55-1.73-.11-1.73,1m6.93,4a3.82,3.82,0,0,0,1.73,3c1,.55,1.73.1,1.73-1a3.85,3.85,0,0,0-1.73-3c-1-.55-1.73-.11-1.73,1" style="fill:#e5e6e8;fill-rule:evenodd"/><path d="M45.2,167.86a3.83,3.83,0,0,0,1.74,3c1,.55,1.73.1,1.73-1a3.85,3.85,0,0,0-1.73-3c-1-.55-1.74-.11-1.74,1" style="fill:#697587;fill-rule:evenodd"/><path d="M10.56,139.86a3.85,3.85,0,0,0,1.73,3c1,.55,1.74.1,1.74-1a3.82,3.82,0,0,0-1.74-3c-.95-.55-1.73-.11-1.73,1m6.93,4a3.85,3.85,0,0,0,1.73,3c1,.55,1.73.1,1.73-1a3.82,3.82,0,0,0-1.73-3c-.95-.55-1.73-.11-1.73,1m6.93,4a3.82,3.82,0,0,0,1.73,3c1,.55,1.73.1,1.73-1a3.82,3.82,0,0,0-1.73-3c-1-.55-1.73-.11-1.73,1m6.93,4a3.82,3.82,0,0,0,1.73,3c1,.55,1.73.1,1.73-1a3.82,3.82,0,0,0-1.73-3c-1-.55-1.73-.11-1.73,1m6.93,4a3.82,3.82,0,0,0,1.73,3c1,.55,1.73.1,1.73-1a3.85,3.85,0,0,0-1.73-3c-1-.55-1.73-.11-1.73,1m6.92,4a3.83,3.83,0,0,0,1.74,3c1,.55,1.73.1,1.73-1a3.85,3.85,0,0,0-1.73-3c-1-.55-1.74-.11-1.74,1m-34.64-28a3.85,3.85,0,0,0,1.73,3c1,.55,1.74.1,1.74-1a3.82,3.82,0,0,0-1.74-3c-.95-.55-1.73-.11-1.73,1" style="fill:#e5e6e8;fill-rule:evenodd"/><path d="M17.49,135.86a3.85,3.85,0,0,0,1.73,3c1,.55,1.73.1,1.73-1a3.82,3.82,0,0,0-1.73-3c-.95-.55-1.73-.11-1.73,1m6.93,4a3.82,3.82,0,0,0,1.73,3c1,.55,1.73.1,1.73-1a3.82,3.82,0,0,0-1.73-3c-1-.55-1.73-.11-1.73,1" style="fill:#697587;fill-rule:evenodd"/><path d="M31.35,143.86a3.82,3.82,0,0,0,1.73,3c1,.55,1.73.1,1.73-1a3.82,3.82,0,0,0-1.73-3c-1-.55-1.73-.11-1.73,1m6.93,4a3.82,3.82,0,0,0,1.73,3c1,.55,1.73.1,1.73-1a3.85,3.85,0,0,0-1.73-3c-1-.55-1.73-.11-1.73,1m6.92,4a3.83,3.83,0,0,0,1.74,3c1,.55,1.73.1,1.73-1a3.85,3.85,0,0,0-1.73-3c-1-.55-1.74-.11-1.74,1" style="fill:#e5e6e8;fill-rule:evenodd"/><path d="M10.56,123.86a3.85,3.85,0,0,0,1.73,3c1,.55,1.74.1,1.74-1a3.82,3.82,0,0,0-1.74-3c-.95-.55-1.73-.11-1.73,1" style="fill:#697587;fill-rule:evenodd"/><path d="M17.49,127.86a3.85,3.85,0,0,0,1.73,3c1,.55,1.73.1,1.73-1a3.82,3.82,0,0,0-1.73-3c-.95-.55-1.73-.11-1.73,1m6.93,4a3.82,3.82,0,0,0,1.73,3c1,.55,1.73.1,1.73-1a3.82,3.82,0,0,0-1.73-3c-1-.55-1.73-.11-1.73,1m6.93,4a3.82,3.82,0,0,0,1.73,3c1,.55,1.73.1,1.73-1a3.82,3.82,0,0,0-1.73-3c-1-.55-1.73-.11-1.73,1m6.93,4a3.82,3.82,0,0,0,1.73,3c1,.55,1.73.1,1.73-1a3.85,3.85,0,0,0-1.73-3c-1-.55-1.73-.11-1.73,1m6.92,4a3.83,3.83,0,0,0,1.74,3c1,.55,1.73.1,1.73-1a3.85,3.85,0,0,0-1.73-3c-1-.55-1.74-.11-1.74,1" style="fill:#e5e6e8;fill-rule:evenodd"/></g></svg>