<svg xmlns="http://www.w3.org/2000/svg" viewBox="0 0 44 44"><g id="Réteg_1" data-name="Réteg 1"><rect x="0.5" y="0.5" width="43" height="43" rx="5.38" style="fill:#252526"/><path d="M38.12,1A4.89,4.89,0,0,1,43,5.88V38.12A4.89,4.89,0,0,1,38.12,43H5.88A4.89,4.89,0,0,1,1,38.12V5.88A4.89,4.89,0,0,1,5.88,1H38.12m0-1H5.88A5.88,5.88,0,0,0,0,5.88V38.12A5.88,5.88,0,0,0,5.88,44H38.12A5.88,5.88,0,0,0,44,38.12V5.88A5.88,5.88,0,0,0,38.12,0Z"/></g><g id="Réteg_4" data-name="Réteg 4"><path d="M41.5,36.5c0,3.25-1.75,5-5,5" style="fill:none;stroke:#000;stroke-linecap:round;stroke-miterlimit:10"/></g><g id="Réteg_2" data-name="Réteg 2"><line x1="8.5" y1="7.5" x2="35.5" y2="7.5" style="fill:none;stroke:#000;stroke-linecap:round;stroke-miterlimit:10"/><line x1="8.5" y1="11.5" x2="26.5" y2="11.5" style="fill:none;stroke:#000;stroke-linecap:round;stroke-miterlimit:10"/><line x1="8.5" y1="15.5" x2="26.5" y2="15.5" style="fill:none;stroke:#000;stroke-linecap:round;stroke-miterlimit:10"/><line x1="8.5" y1="19.5" x2="26.5" y2="19.5" style="fill:none;stroke:#000;stroke-linecap:round;stroke-miterlimit:10"/></g><g id="Réteg_2_másolat" data-name="Réteg 2 másolat"><line x1="8.5" y1="23.5" x2="35.5" y2="23.5" style="fill:none;stroke:#000;stroke-linecap:round;stroke-miterlimit:10"/><line x1="8.5" y1="27.5" x2="26.5" y2="27.5" style="fill:none;stroke:#000;stroke-linecap:round;stroke-miterlimit:10"/><line x1="8.5" y1="31.5" x2="26.5" y2="31.5" style="fill:none;stroke:#000;stroke-linecap:round;stroke-miterlimit:10"/><line x1="8.5" y1="35.5" x2="26.5" y2="35.5" style="fill:none;stroke:#000;stroke-linecap:round;stroke-miterlimit:10"/></g></svg>