<svg id="Layer_1" data-name="Layer 1" xmlns="http://www.w3.org/2000/svg" viewBox="0 0 492 269"><path d="M485.8,5.57V262.43H6.2V5.57Z" fill="#58935e"/><path d="M423.71,37H67.29C67.29,55,53,68.38,36,68.88V199.12C53,199.62,67.29,214,67.29,232H423.71c0-18,13.29-32.38,30.29-32.88V68.88C437,68.38,423.71,55,423.71,37Z" fill="#7fd695"/><path d="M403,113.58A20.42,20.42,0,1,1,382.58,134,20.42,20.42,0,0,1,403,113.58Z" fill="#61b257"/><path d="M246,38a96,96,0,1,1-96,96h0a96,96,0,0,1,96-96Zm69.71,96A69.71,69.71,0,1,0,246,203.71h0A69.71,69.71,0,0,0,315.71,134Z" fill="#61b257"/><path d="M89,113.58A20.42,20.42,0,1,1,68.59,134h0A20.42,20.42,0,0,1,89,113.58Z" fill="#61b257"/><path d="M66,199.12V68.88C83,68.38,97.29,55,97.29,37h-30C67.29,55,53,68.38,36,68.88V199.12C53,199.62,67.29,214,67.29,232h30C97.29,214,83,199.62,66,199.12Z" fill="#6db57c"/><path d="M246,58.29A75.71,75.71,0,1,0,321.71,134h0A75.8,75.8,0,0,0,246,58.29Zm0,139.42A63.71,63.71,0,1,1,309.71,134h0A63.78,63.78,0,0,1,246,197.71Z" fill="#284268"/><path d="M246,103.77a11.77,11.77,0,0,1,11.77,11.76,6,6,0,0,0,12,0h0a23.81,23.81,0,0,0-17.77-23V87.07a6,6,0,0,0-12,0v5.46a23.76,23.76,0,0,0,6,46.76,11.77,11.77,0,1,1-11.77,11.77h0a6,6,0,0,0-12,0,23.81,23.81,0,0,0,17.77,23v6.87a6,6,0,0,0,12,0v-6.87a23.76,23.76,0,0,0-6-46.76,11.77,11.77,0,0,1-.22-23.53Z" fill="#284268"/><path d="M6,269H486a6,6,0,0,0,6-6V6a6,6,0,0,0-6-6H6A6,6,0,0,0,0,6V263A6,6,0,0,0,6,269ZM12,12H480V256H12Z" fill="#284268"/><path d="M62.58,134A26.42,26.42,0,1,0,89,107.58h0A26.46,26.46,0,0,0,62.58,134Zm40.84,0A14.42,14.42,0,1,1,89,119.58,14.42,14.42,0,0,1,103.42,134Z" fill="#284268"/><path d="M403,107.58A26.42,26.42,0,1,0,429.42,134h0A26.46,26.46,0,0,0,403,107.58Zm0,40.84A14.42,14.42,0,1,1,417.42,134h0A14.44,14.44,0,0,1,403,148.42Z" fill="#284268"/><path d="M454.24,62.89c-14-.39-24.56-11.55-24.53-25.95a6,6,0,0,0-6-5.94H129a6,6,0,0,0,0,12h71a102,102,0,0,0,2,183H72.83A39,39,0,0,0,42,193.76V74.28A37.86,37.86,0,0,0,72.83,43H89a6,6,0,0,0,0-12H67.29a6,6,0,0,0-6,6A25.94,25.94,0,0,1,35.73,62.89a6,6,0,0,0-5.73,6V199.12a6,6,0,0,0,5.72,6c14.11.36,25.6,12.48,25.57,26.94a6,6,0,0,0,6,5.95H423.71a6,6,0,0,0,6-5.92c0-14.72,10.74-26.58,24.51-27a6,6,0,0,0,5.78-6V68.88a6,6,0,0,0-5.76-6ZM156,134a90,90,0,1,1,90,90A90,90,0,0,1,156,134Zm292,59.76c-15.53,3-27.49,15.89-29.86,32.24H290a102,102,0,0,0,2-183H418.14A36.67,36.67,0,0,0,448,74.27Z" fill="#284268"/></svg>