<svg id="Layer_1" data-name="Layer 1" xmlns="http://www.w3.org/2000/svg" xmlns:xlink="http://www.w3.org/1999/xlink" viewBox="0 0 95 108"><defs><linearGradient id="linear-gradient" x1="65.13" y1="19.04" x2="27.07" y2="96.69" gradientUnits="userSpaceOnUse"><stop offset="0" stop-color="#3f873f"/><stop offset="0.33" stop-color="#3f8b3d"/><stop offset="0.64" stop-color="#3e9637"/><stop offset="0.93" stop-color="#3da92e"/><stop offset="1" stop-color="#3dae2b"/></linearGradient><clipPath id="clip-path"><path d="M50.55.94a5.09,5.09,0,0,0-5.09,0L3.33,25.25A5.09,5.09,0,0,0,.78,29.66V78.32a5.09,5.09,0,0,0,2.55,4.41l42.13,24.33a5.09,5.09,0,0,0,5.09,0L92.67,82.73a5.09,5.09,0,0,0,2.55-4.41V29.66a5.09,5.09,0,0,0-2.55-4.41Z" fill="url(#linear-gradient)" clip-rule="evenodd"/></clipPath><linearGradient id="linear-gradient-3" x1="41.59" y1="59.68" x2="148.39" y2="-19.23" gradientUnits="userSpaceOnUse"><stop offset="0.14" stop-color="#3f873f"/><stop offset="0.4" stop-color="#529f44"/><stop offset="0.71" stop-color="#63b649"/><stop offset="0.91" stop-color="#6abf4b"/></linearGradient><linearGradient id="linear-gradient-4" x1="-0.71" y1="53.98" x2="96.71" y2="53.98" gradientUnits="userSpaceOnUse"><stop offset="0.09" stop-color="#6abf4b"/><stop offset="0.29" stop-color="#63b649"/><stop offset="0.6" stop-color="#529f44"/><stop offset="0.86" stop-color="#3f873f"/></linearGradient><linearGradient id="linear-gradient-5" x1="-0.71" y1="94.36" x2="96.71" y2="94.36" xlink:href="#linear-gradient-4"/><linearGradient id="linear-gradient-6" x1="110.9" y1="16.74" x2="50.82" y2="139.3" xlink:href="#linear-gradient"/></defs><path d="M50.55.94a5.09,5.09,0,0,0-5.09,0L3.33,25.25A5.09,5.09,0,0,0,.78,29.66V78.32a5.09,5.09,0,0,0,2.55,4.41l42.13,24.33a5.09,5.09,0,0,0,5.09,0L92.67,82.73a5.09,5.09,0,0,0,2.55-4.41V29.66a5.09,5.09,0,0,0-2.55-4.41Z" fill-rule="evenodd" fill="url(#linear-gradient)"/><g clip-path="url(#clip-path)"><path d="M45.37.94,3.15,25.25A5.27,5.27,0,0,0,.43,29.66V78.32a4.91,4.91,0,0,0,1.31,3.24L49.18.41A5.14,5.14,0,0,0,45.37.94Z" fill="none"/><path d="M49.42,107.56a5.1,5.1,0,0,0,1.18-.5L92.78,82.73a5.2,5.2,0,0,0,2.65-4.41V29.66a5.05,5.05,0,0,0-1.54-3.54Z" fill="none"/><path d="M92.76,25.25,50.5.94A4.57,4.57,0,0,0,49.18.41L1.74,81.56a5.91,5.91,0,0,0,1.42,1.17l42.33,24.33a5.1,5.1,0,0,0,3.93.5L93.89,26.12A6,6,0,0,0,92.76,25.25Z" fill="url(#linear-gradient-3)"/><path d="M95.43,78.32V29.66a5.22,5.22,0,0,0-2.67-4.41L50.5.94A4.85,4.85,0,0,0,49,.36L95.27,79.49A4.59,4.59,0,0,0,95.43,78.32Z" fill="none"/><path d="M3.15,25.25A5.27,5.27,0,0,0,.43,29.66V78.32a5.28,5.28,0,0,0,2.73,4.41l42.33,24.33a5.08,5.08,0,0,0,3.25.64L3.41,25.1Z" fill="none"/><path d="M92.78,82.73a5.32,5.32,0,0,0,2.49-3.24L49,.36a5.16,5.16,0,0,0-3.58.58L3.41,25.1l45.33,82.6a5,5,0,0,0,1.86-.64Z" fill="url(#linear-gradient-4)"/><path d="M92.78,82.73,50.6,107.06a5,5,0,0,1-1.86.64l.84,1.53L96.43,82.11v-.64l-1.16-2A5.32,5.32,0,0,1,92.78,82.73Z" fill="url(#linear-gradient-5)"/><path d="M92.78,82.73,50.6,107.06a5,5,0,0,1-1.86.64l.84,1.53L96.43,82.11v-.64l-1.16-2A5.32,5.32,0,0,1,92.78,82.73Z" fill="url(#linear-gradient-6)"/></g></svg>